<mxfile host="Electron" modified="2023-09-07T23:57:48.891Z" agent="Mozilla/5.0 (Windows NT 10.0; Win64; x64) AppleWebKit/537.36 (KHTML, like Gecko) draw.io/21.6.8 Chrome/114.0.5735.289 Electron/25.5.0 Safari/537.36" etag="uY0yrcbQ7jGop0Coj55I" version="21.6.8" type="device">
  <diagram name="Page-1" id="b5b7bab2-c9e2-2cf4-8b2a-24fd1a2a6d21">
    <mxGraphModel dx="1501" dy="713" grid="1" gridSize="10" guides="1" tooltips="1" connect="1" arrows="1" fold="1" page="1" pageScale="1" pageWidth="827" pageHeight="1169" background="none" math="0" shadow="0">
      <root>
        <mxCell id="0" />
        <mxCell id="1" parent="0" />
        <mxCell id="ANMeeMcC8XiPSkQVhFYb-1" value="Utilisateur (Bibliothécaire)" style="shape=umlActor;verticalLabelPosition=bottom;verticalAlign=top;html=1;outlineConnect=0;" vertex="1" parent="1">
          <mxGeometry x="70" y="515" width="30" height="60" as="geometry" />
        </mxCell>
        <mxCell id="ANMeeMcC8XiPSkQVhFYb-2" value="&lt;b&gt;AutoBib&lt;/b&gt;" style="shape=umlFrame;whiteSpace=wrap;html=1;pointerEvents=0;" vertex="1" parent="1">
          <mxGeometry x="190" y="360" width="560" height="625" as="geometry" />
        </mxCell>
        <mxCell id="ANMeeMcC8XiPSkQVhFYb-4" value="Gabarits Word &amp;amp; Excel" style="shape=umlActor;verticalLabelPosition=bottom;verticalAlign=top;html=1;outlineConnect=0;" vertex="1" parent="1">
          <mxGeometry x="640" y="1030" width="30" height="60" as="geometry" />
        </mxCell>
        <mxCell id="ANMeeMcC8XiPSkQVhFYb-5" value="Use" style="endArrow=open;endSize=12;dashed=1;html=1;rounded=0;exitX=0.5;exitY=1;exitDx=0;exitDy=0;entryX=0.5;entryY=0;entryDx=0;entryDy=0;" edge="1" parent="1" source="ANMeeMcC8XiPSkQVhFYb-6" target="ANMeeMcC8XiPSkQVhFYb-9">
          <mxGeometry width="160" relative="1" as="geometry">
            <mxPoint x="30" y="494.40999999999997" as="sourcePoint" />
            <mxPoint x="190" y="494.40999999999997" as="targetPoint" />
          </mxGeometry>
        </mxCell>
        <mxCell id="ANMeeMcC8XiPSkQVhFYb-6" value="Rechercher une personne" style="ellipse;whiteSpace=wrap;html=1;" vertex="1" parent="1">
          <mxGeometry x="220" y="425" width="210" height="60" as="geometry" />
        </mxCell>
        <mxCell id="ANMeeMcC8XiPSkQVhFYb-9" value="Choisir les variables de la fiche bibliométrique &lt;br&gt;(types de pub., plages d&#39;années, ...)" style="ellipse;whiteSpace=wrap;html=1;" vertex="1" parent="1">
          <mxGeometry x="210" y="555" width="230" height="90" as="geometry" />
        </mxCell>
        <mxCell id="ANMeeMcC8XiPSkQVhFYb-10" value="Générer une fiche bibliométrique" style="ellipse;whiteSpace=wrap;html=1;" vertex="1" parent="1">
          <mxGeometry x="220" y="725" width="210" height="60" as="geometry" />
        </mxCell>
        <mxCell id="ANMeeMcC8XiPSkQVhFYb-11" value="Gérer les erreurs" style="ellipse;whiteSpace=wrap;html=1;" vertex="1" parent="1">
          <mxGeometry x="520" y="660" width="210" height="60" as="geometry" />
        </mxCell>
        <mxCell id="ANMeeMcC8XiPSkQVhFYb-12" value="Paramétrer les identifiants aux API et le répertoire d&#39;enregistrement des fiches bibliométriques" style="ellipse;whiteSpace=wrap;html=1;" vertex="1" parent="1">
          <mxGeometry x="520" y="475" width="210" height="120" as="geometry" />
        </mxCell>
        <mxCell id="ANMeeMcC8XiPSkQVhFYb-13" value="Obtenir les infos sur AutoBib" style="ellipse;whiteSpace=wrap;html=1;" vertex="1" parent="1">
          <mxGeometry x="220" y="835" width="210" height="60" as="geometry" />
        </mxCell>
        <mxCell id="ANMeeMcC8XiPSkQVhFYb-14" value="Obtenir les infos sur les API" style="ellipse;whiteSpace=wrap;html=1;" vertex="1" parent="1">
          <mxGeometry x="220" y="905" width="210" height="60" as="geometry" />
        </mxCell>
        <mxCell id="ANMeeMcC8XiPSkQVhFYb-15" value="Use" style="endArrow=open;endSize=12;dashed=1;html=1;rounded=0;exitX=0.5;exitY=1;exitDx=0;exitDy=0;entryX=0.5;entryY=0;entryDx=0;entryDy=0;" edge="1" parent="1" source="ANMeeMcC8XiPSkQVhFYb-9" target="ANMeeMcC8XiPSkQVhFYb-10">
          <mxGeometry width="160" relative="1" as="geometry">
            <mxPoint x="360" y="675" as="sourcePoint" />
            <mxPoint x="360" y="745" as="targetPoint" />
          </mxGeometry>
        </mxCell>
        <mxCell id="ANMeeMcC8XiPSkQVhFYb-23" value="" style="endArrow=none;html=1;rounded=0;exitX=1;exitY=0.3333333333333333;exitDx=0;exitDy=0;exitPerimeter=0;entryX=0;entryY=0.5;entryDx=0;entryDy=0;" edge="1" parent="1" source="ANMeeMcC8XiPSkQVhFYb-1" target="ANMeeMcC8XiPSkQVhFYb-6">
          <mxGeometry width="50" height="50" relative="1" as="geometry">
            <mxPoint x="500" y="675" as="sourcePoint" />
            <mxPoint x="550" y="625" as="targetPoint" />
          </mxGeometry>
        </mxCell>
        <mxCell id="ANMeeMcC8XiPSkQVhFYb-24" value="" style="endArrow=none;html=1;rounded=0;exitX=1;exitY=0.3333333333333333;exitDx=0;exitDy=0;exitPerimeter=0;entryX=0;entryY=0.5;entryDx=0;entryDy=0;" edge="1" parent="1" source="ANMeeMcC8XiPSkQVhFYb-1" target="ANMeeMcC8XiPSkQVhFYb-9">
          <mxGeometry width="50" height="50" relative="1" as="geometry">
            <mxPoint x="-10" y="495" as="sourcePoint" />
            <mxPoint x="230" y="465" as="targetPoint" />
          </mxGeometry>
        </mxCell>
        <mxCell id="ANMeeMcC8XiPSkQVhFYb-25" value="" style="endArrow=none;html=1;rounded=0;exitX=1;exitY=0.3333333333333333;exitDx=0;exitDy=0;exitPerimeter=0;entryX=0;entryY=0.5;entryDx=0;entryDy=0;" edge="1" parent="1" source="ANMeeMcC8XiPSkQVhFYb-1" target="ANMeeMcC8XiPSkQVhFYb-10">
          <mxGeometry width="50" height="50" relative="1" as="geometry">
            <mxPoint x="-10" y="495" as="sourcePoint" />
            <mxPoint x="220" y="610" as="targetPoint" />
            <Array as="points">
              <mxPoint x="200" y="625" />
            </Array>
          </mxGeometry>
        </mxCell>
        <mxCell id="ANMeeMcC8XiPSkQVhFYb-27" value="Use" style="endArrow=open;endSize=12;dashed=1;html=1;rounded=0;entryX=1;entryY=0.5;entryDx=0;entryDy=0;exitX=0;exitY=0;exitDx=0;exitDy=0;" edge="1" parent="1" source="ANMeeMcC8XiPSkQVhFYb-11" target="ANMeeMcC8XiPSkQVhFYb-6">
          <mxGeometry width="160" relative="1" as="geometry">
            <mxPoint x="450" y="655" as="sourcePoint" />
            <mxPoint x="610" y="655" as="targetPoint" />
          </mxGeometry>
        </mxCell>
        <mxCell id="ANMeeMcC8XiPSkQVhFYb-29" value="Use" style="endArrow=open;endSize=12;dashed=1;html=1;rounded=0;exitX=0;exitY=0.5;exitDx=0;exitDy=0;entryX=1;entryY=0.5;entryDx=0;entryDy=0;" edge="1" parent="1" source="ANMeeMcC8XiPSkQVhFYb-11" target="ANMeeMcC8XiPSkQVhFYb-9">
          <mxGeometry width="160" relative="1" as="geometry">
            <mxPoint x="440" y="465" as="sourcePoint" />
            <mxPoint x="530" y="664" as="targetPoint" />
          </mxGeometry>
        </mxCell>
        <mxCell id="ANMeeMcC8XiPSkQVhFYb-30" value="Use" style="endArrow=open;endSize=12;dashed=1;html=1;rounded=0;exitX=0;exitY=1;exitDx=0;exitDy=0;entryX=1;entryY=0.5;entryDx=0;entryDy=0;" edge="1" parent="1" source="ANMeeMcC8XiPSkQVhFYb-11" target="ANMeeMcC8XiPSkQVhFYb-10">
          <mxGeometry width="160" relative="1" as="geometry">
            <mxPoint x="450" y="475" as="sourcePoint" />
            <mxPoint x="540" y="674" as="targetPoint" />
          </mxGeometry>
        </mxCell>
        <mxCell id="ANMeeMcC8XiPSkQVhFYb-31" value="" style="endArrow=none;html=1;rounded=0;exitX=1;exitY=0.3333333333333333;exitDx=0;exitDy=0;exitPerimeter=0;entryX=0;entryY=0.5;entryDx=0;entryDy=0;" edge="1" parent="1" source="ANMeeMcC8XiPSkQVhFYb-1" target="ANMeeMcC8XiPSkQVhFYb-12">
          <mxGeometry width="50" height="50" relative="1" as="geometry">
            <mxPoint x="-10" y="495" as="sourcePoint" />
            <mxPoint x="230" y="465" as="targetPoint" />
          </mxGeometry>
        </mxCell>
        <mxCell id="ANMeeMcC8XiPSkQVhFYb-34" value="" style="endArrow=none;html=1;rounded=0;exitX=1;exitY=0.5;exitDx=0;exitDy=0;entryX=0;entryY=0.3333333333333333;entryDx=0;entryDy=0;entryPerimeter=0;" edge="1" parent="1" source="ANMeeMcC8XiPSkQVhFYb-6" target="ANMeeMcC8XiPSkQVhFYb-8">
          <mxGeometry width="50" height="50" relative="1" as="geometry">
            <mxPoint x="430" y="455" as="sourcePoint" />
            <mxPoint x="890" y="385" as="targetPoint" />
            <Array as="points">
              <mxPoint x="510" y="300" />
            </Array>
          </mxGeometry>
        </mxCell>
        <mxCell id="ANMeeMcC8XiPSkQVhFYb-8" value="API Elsevier (Scopus &amp;amp; SciVal)" style="shape=umlActor;verticalLabelPosition=bottom;verticalAlign=top;html=1;outlineConnect=0;" vertex="1" parent="1">
          <mxGeometry x="670" y="220" width="30" height="60" as="geometry" />
        </mxCell>
        <mxCell id="ANMeeMcC8XiPSkQVhFYb-35" value="" style="endArrow=none;html=1;rounded=0;exitX=1;exitY=0.5;exitDx=0;exitDy=0;entryX=1;entryY=0.3333333333333333;entryDx=0;entryDy=0;entryPerimeter=0;" edge="1" parent="1" source="ANMeeMcC8XiPSkQVhFYb-12" target="ANMeeMcC8XiPSkQVhFYb-8">
          <mxGeometry width="50" height="50" relative="1" as="geometry">
            <mxPoint y="505" as="sourcePoint" />
            <mxPoint x="240" y="475" as="targetPoint" />
            <Array as="points">
              <mxPoint x="800" y="430" />
              <mxPoint x="800" y="280" />
            </Array>
          </mxGeometry>
        </mxCell>
        <mxCell id="ANMeeMcC8XiPSkQVhFYb-41" value="" style="endArrow=none;html=1;rounded=0;exitX=1;exitY=0.5;exitDx=0;exitDy=0;entryX=0;entryY=0.3333333333333333;entryDx=0;entryDy=0;entryPerimeter=0;" edge="1" parent="1" source="ANMeeMcC8XiPSkQVhFYb-10" target="ANMeeMcC8XiPSkQVhFYb-4">
          <mxGeometry width="50" height="50" relative="1" as="geometry">
            <mxPoint x="10" y="515" as="sourcePoint" />
            <mxPoint x="250" y="485" as="targetPoint" />
            <Array as="points">
              <mxPoint x="510" y="810" />
            </Array>
          </mxGeometry>
        </mxCell>
        <mxCell id="ANMeeMcC8XiPSkQVhFYb-43" value="" style="endArrow=none;html=1;rounded=0;exitX=1;exitY=0.3333333333333333;exitDx=0;exitDy=0;exitPerimeter=0;entryX=0;entryY=0.5;entryDx=0;entryDy=0;" edge="1" parent="1" source="ANMeeMcC8XiPSkQVhFYb-1" target="ANMeeMcC8XiPSkQVhFYb-13">
          <mxGeometry width="50" height="50" relative="1" as="geometry">
            <mxPoint x="110" y="545" as="sourcePoint" />
            <mxPoint x="230" y="765" as="targetPoint" />
            <Array as="points">
              <mxPoint x="180" y="605" />
            </Array>
          </mxGeometry>
        </mxCell>
        <mxCell id="ANMeeMcC8XiPSkQVhFYb-44" value="" style="endArrow=none;html=1;rounded=0;exitX=1;exitY=0.3333333333333333;exitDx=0;exitDy=0;exitPerimeter=0;entryX=0;entryY=0.5;entryDx=0;entryDy=0;" edge="1" parent="1" target="ANMeeMcC8XiPSkQVhFYb-14">
          <mxGeometry width="50" height="50" relative="1" as="geometry">
            <mxPoint x="120" y="555" as="sourcePoint" />
            <mxPoint x="240" y="775" as="targetPoint" />
            <Array as="points">
              <mxPoint x="160" y="595" />
            </Array>
          </mxGeometry>
        </mxCell>
        <mxCell id="ANMeeMcC8XiPSkQVhFYb-45" value="" style="endArrow=none;html=1;rounded=0;exitX=1;exitY=0;exitDx=0;exitDy=0;entryX=0;entryY=0.3333333333333333;entryDx=0;entryDy=0;entryPerimeter=0;" edge="1" parent="1" source="ANMeeMcC8XiPSkQVhFYb-9" target="ANMeeMcC8XiPSkQVhFYb-8">
          <mxGeometry width="50" height="50" relative="1" as="geometry">
            <mxPoint x="440" y="465" as="sourcePoint" />
            <mxPoint x="900" y="465" as="targetPoint" />
            <Array as="points">
              <mxPoint x="540" y="310" />
            </Array>
          </mxGeometry>
        </mxCell>
        <mxCell id="ANMeeMcC8XiPSkQVhFYb-60" value="Use" style="endArrow=open;endSize=12;dashed=1;html=1;rounded=0;entryX=0.5;entryY=1;entryDx=0;entryDy=0;exitX=0.5;exitY=0;exitDx=0;exitDy=0;" edge="1" parent="1" source="ANMeeMcC8XiPSkQVhFYb-11" target="ANMeeMcC8XiPSkQVhFYb-12">
          <mxGeometry width="160" relative="1" as="geometry">
            <mxPoint x="635" y="605" as="sourcePoint" />
            <mxPoint x="635" y="670" as="targetPoint" />
          </mxGeometry>
        </mxCell>
        <mxCell id="ANMeeMcC8XiPSkQVhFYb-61" value="Use" style="endArrow=open;endSize=12;dashed=1;html=1;rounded=0;entryX=0.5;entryY=0;entryDx=0;entryDy=0;exitX=0.5;exitY=0;exitDx=0;exitDy=0;" edge="1" parent="1" source="ANMeeMcC8XiPSkQVhFYb-12" target="ANMeeMcC8XiPSkQVhFYb-6">
          <mxGeometry width="160" relative="1" as="geometry">
            <mxPoint x="635" y="670" as="sourcePoint" />
            <mxPoint x="635" y="605" as="targetPoint" />
            <Array as="points">
              <mxPoint x="625" y="390" />
              <mxPoint x="325" y="390" />
            </Array>
          </mxGeometry>
        </mxCell>
        <mxCell id="ANMeeMcC8XiPSkQVhFYb-62" value="&lt;font style=&quot;font-size: 36px;&quot;&gt;Diagramme UseCase du logiciel AutoBib (UML)&lt;/font&gt;" style="rounded=0;whiteSpace=wrap;html=1;" vertex="1" parent="1">
          <mxGeometry x="80" y="40" width="670" height="110" as="geometry" />
        </mxCell>
      </root>
    </mxGraphModel>
  </diagram>
</mxfile>
